<?xml version="1.0" standalone="no"?><!DOCTYPE svg PUBLIC "-//W3C//DTD SVG 1.1//EN" "http://www.w3.org/Graphics/SVG/1.1/DTD/svg11.dtd"><svg class="icon" width="200px" height="200.00px" viewBox="0 0 1024 1024" version="1.1" xmlns="http://www.w3.org/2000/svg"><path fill="#2c2c2c" d="M633.28 547.946667c30.72-25.706667 50.346667-64.32 50.346667-107.52 0-77.333333-62.613333-140.053333-140.053333-140.053333s-140.053333 62.613333-140.053333 140.053333c0 43.093333 19.52 81.706667 50.133333 107.413333-59.093333 22.08-107.946667 65.386667-137.173333 120.64 13.013333 20.48 28.906667 39.04 46.826667 55.253333 26.24-74.133333 96.96-127.253333 180.053333-127.253333 82.88 0 153.493333 52.8 179.84 126.613333 17.813333-16.213333 33.493333-34.666667 46.506667-55.04C740.586667 613.013333 692.16 570.026667 633.28 547.946667L633.28 547.946667zM542.933333 516.8c-42.453333 0-76.8-34.453333-76.8-76.8 0-42.453333 34.453333-76.8 76.8-76.8 42.453333 0 76.8 34.453333 76.8 76.8C619.733333 482.346667 585.28 516.8 542.933333 516.8L542.933333 516.8zM234.666667 384l-51.2 0c-23.466667 0-42.666667-19.2-42.666667-42.666667l0 0c0-23.466667 19.2-42.666667 42.666667-42.666667l51.2 0c23.466667 0 42.666667 19.2 42.666667 42.666667l0 0C277.333333 364.8 258.133333 384 234.666667 384zM234.666667 725.333333l-51.2 0c-23.466667 0-42.666667-19.2-42.666667-42.666667l0 0c0-23.466667 19.2-42.666667 42.666667-42.666667l51.2 0c23.466667 0 42.666667 19.2 42.666667 42.666667l0 0C277.333333 706.133333 258.133333 725.333333 234.666667 725.333333zM895.786667 161.066667l0 703.36c0 41.066667-31.68 74.666667-70.4 74.666667L243.2 939.093333c-38.72 0-70.4-33.6-70.4-74.666667l0-95.04 83.84 0 0 83.946667L810.666667 853.333333l0-682.666667-554.026667 0 0 85.546667L172.8 256.213333l0-95.146667c0-41.066667 31.68-74.666667 70.4-74.666667l582.186667 0C864.106667 86.4 895.786667 120 895.786667 161.066667zM172.8 596.48l83.84 0L256.64 425.92 172.8 425.92 172.8 596.48z" /></svg>