<?xml version="1.0" standalone="no"?><!DOCTYPE svg PUBLIC "-//W3C//DTD SVG 1.1//EN" "http://www.w3.org/Graphics/SVG/1.1/DTD/svg11.dtd"><svg class="icon" width="200px" height="200.00px" viewBox="0 0 1024 1024" version="1.1" xmlns="http://www.w3.org/2000/svg"><path fill="#2c2c2c" d="M973.684309 984.536164a35.394773 35.394773 0 0 0-1.496425-9.485602c-21.976419-162.801116-127.85156-302.698277-276.727269-366.636424l-21.024149-8.990916 18.736226-12.985503a321.15006 321.15006 0 0 0 140.11977-264.990848C833.292462 144.126725 689.178104 0.012367 512.105301 0.012367 334.809889 0 190.695531 144.114358 190.695531 321.434504a321.941557 321.941557 0 0 0 140.11977 265.23819l18.736227 12.738161-20.727338 8.990916c-147.35455 63.443461-253.007083 201.584488-275.787366 360.403382l-0.754396 2.745507a34.256996 34.256996 0 0 0-2.473429 12.985504l0.247343 3.252559C50.303685 1008.268718 66.047062 1023.999728 85.277975 1023.999728a35.122696 35.122696 0 0 0 35.209266-34.961923l-1.496425-13.987243 3.994588 0.247343a392.656901 392.656901 0 0 1 367.885506-333.418269 368.207052 368.207052 0 0 0 40.712647 0c188.821592 9.992654 341.914499 149.642472 369.641641 333.912955h0.247342l2.250821 11.241736c0.247343 21.23439 15.978353 36.965401 35.209266 36.965401a35.122696 35.122696 0 0 0 35.258735-34.961923zM532.86974 571.201394c-13.987243-0.494686-27.974485-0.494686-41.714385 0-131.870883-11.489079-230.028924-118.885379-230.028925-249.816359 0-138.363635 112.392627-251.053073 250.756262-251.053073s251.053073 112.63997 251.053074 251.053073c0 130.869144-98.158042 238.265444-228.5325 249.816359z" /></svg>