<?xml version="1.0" standalone="no"?><!DOCTYPE svg PUBLIC "-//W3C//DTD SVG 1.1//EN" "http://www.w3.org/Graphics/SVG/1.1/DTD/svg11.dtd"><svg class="icon" width="200px" height="200.00px" viewBox="0 0 1024 1024" version="1.1" xmlns="http://www.w3.org/2000/svg"><path fill="#2c2c2c" d="M512.603 2.111C230.604 2.111 1.204 198.522 1.204 439.965c0 132.851 71.961 257.752 197.401 342.835 16.694 11.385 39.412 7.012 50.734-9.701 11.328-16.673 6.982-39.374-9.714-50.685C134.531 651.155 74.26 548.222 74.26 439.965c0-201.197 196.631-364.877 438.34-364.877 241.71 0 438.341 163.681 438.341 364.877 0 201.194-196.631 364.875-438.341 364.875-2.263 0-4.203 0.879-6.354 1.282-17.276-3.103-34.775 5.945-40.838 23.021-7.018 19.813-52.935 53.196-107.47 84.143 19.911-66.377 10.373-80.603 3.984-90.057-7.669-11.38-20.456-18.164-34.156-18.164-20.161 0-36.53 16.306-36.53 36.485 0 6.645 1.755 12.844 4.863 18.206-3.691 20.768-19.653 69.366-37.738 113.842-5.626 13.792-2.267 29.63 8.439 39.992 6.942 6.712 16.109 10.254 25.423 10.254 5.006 0 10.048-1.021 14.831-3.139 41.647-18.534 168.544-78.815 214.163-143.25C799.238 873.441 1024 678.926 1024 439.965 1024.002 198.522 794.605 2.111 512.603 2.111L512.603 2.111zM316.597 371.018c-36.197 0-65.653 29.46-65.653 65.653 0 36.2 29.456 65.655 65.653 65.655 36.196 0 65.654-29.457 65.654-65.655C382.253 400.478 352.793 371.018 316.597 371.018L316.597 371.018zM513.562 371.018c-36.197 0-65.655 29.46-65.655 65.653 0 36.2 29.458 65.655 65.655 65.655 36.196 0 65.652-29.457 65.652-65.655C579.212 400.478 549.756 371.018 513.562 371.018L513.562 371.018zM710.522 371.018c-36.199 0-65.656 29.46-65.656 65.653 0 36.2 29.457 65.655 65.656 65.655 36.191 0 65.652-29.457 65.652-65.655C776.175 400.478 746.716 371.018 710.522 371.018L710.522 371.018z" /></svg>