<?xml version="1.0" encoding="utf-8"?>
<!-- Generator: Adobe Illustrator 18.0.0, SVG Export Plug-In . SVG Version: 6.00 Build 0)  -->
<!DOCTYPE svg PUBLIC "-//W3C//DTD SVG 1.1//EN" "http://www.w3.org/Graphics/SVG/1.1/DTD/svg11.dtd">
<svg version="1.1" id="图层_1" xmlns="http://www.w3.org/2000/svg" xmlns:xlink="http://www.w3.org/1999/xlink" x="0px" y="0px"
	 viewBox="96.6 45.5 62 62" enable-background="new 96.6 45.5 62 62" xml:space="preserve">
<g>
	<path fill="#FFFFFF" d="M106.8,51.4c0,1.6,0,3.1,0,4.6c-1.6,0-3.2,0-4.9,0c0,0.7-0.1,1.3-0.1,1.9c0,14.3,0,28.6,0,42.9
		c0,1.2,0.1,1.9,1.6,1.9c16.4-0.1,32.7,0,49,0c0.3,0,0.6,0,1.1-0.1c0-15.5,0-30.9,0-46.5c-1.6,0-3.2,0-4.9,0c0-1.4-0.1-2.7,0-3.8
		c0-0.3,0.6-0.8,0.9-0.8c1.5-0.1,3-0.1,4.4,0c2.4,0.2,3.9,1.9,4.2,4.3c0.1,0.6,0.1,1.3,0.1,1.9c0,14.5,0,28.9,0,43.4
		c0,1,0,2.1-0.3,3c-0.7,2.1-2.5,3.3-4.8,3.3c-16.9,0-33.8,0-50.7,0c-2.8,0-4.6-1.7-5-4.3c-0.1-0.7-0.2-1.4-0.2-2.1
		c0-14.5,0-28.9,0-43.4c0-3.6,1.6-5.8,4.4-6C103.1,51.3,104.9,51.4,106.8,51.4z"/>
	<path fill="#FFFFFF" d="M127.7,74.4c5.4,0,10.8,0,16.2,0c0.8,0,1.9,0.3,2.5,0.8c1.3,1,0.9,2.9-0.6,3.6c-0.6,0.2-1.3,0.3-1.9,0.3
		c-10.9,0-21.8,0-32.7,0c-1.3,0-2.5-0.5-2.8-1.7c-0.2-0.7,0.1-1.7,0.6-2.3c0.5-0.5,1.4-0.7,2.2-0.7
		C116.7,74.4,122.2,74.4,127.7,74.4z"/>
	<path fill="#FFFFFF" d="M127.6,91c-5.4,0-10.8,0-16.2,0c-2,0-3.2-0.9-3.2-2.4c0-1.3,1.3-2.3,3.2-2.3c10.9,0,21.8,0,32.7,0
		c1.9,0,3.1,1,3.1,2.4c0,1.3-1.3,2.4-3.1,2.4C138.5,91,133,91,127.6,91z"/>
	<path fill="#FFFFFF" d="M137.8,56c-6.9,0-13.4,0-20,0c0-1.5,0-3,0-4.5c0.5,0,1-0.1,1.4-0.1c5.7,0,11.4,0,17.1,0
		c1.2,0,1.7,0.3,1.6,1.6C137.7,53.9,137.8,54.8,137.8,56z"/>
	<path fill="#FFFFFF" d="M114.6,53.8c0,1.9,0,3.8,0,5.7c0,1.3-0.7,2.2-1.9,2.4c-1.3,0.2-2.2-0.4-2.6-1.7c-0.2-0.6-0.2-1.3-0.2-1.9
		c0-3.1,0-6.1,0-9.3c0-0.5,0-1,0.1-1.4c0.3-1.6,1.4-2.6,2.6-2.3c1.4,0.4,2.1,1.3,2.1,2.8C114.5,50,114.6,51.9,114.6,53.8z"/>
	<path fill="#FFFFFF" d="M140.7,53.6c0-1.8,0-3.6,0-5.4c0-1.6,1.1-2.8,2.3-2.8s2.3,1.1,2.3,2.7c0.1,3.7,0.1,7.6,0,11.3
		c0,1.6-1.1,2.7-2.4,2.7c-1.2-0.1-2.2-1.2-2.2-2.7C140.7,57.3,140.7,55.4,140.7,53.6z"/>
</g>
</svg>
