<?xml version="1.0" standalone="no"?><!DOCTYPE svg PUBLIC "-//W3C//DTD SVG 1.1//EN" "http://www.w3.org/Graphics/SVG/1.1/DTD/svg11.dtd"><svg class="icon" width="200px" height="200.00px" viewBox="0 0 1024 1024" version="1.1" xmlns="http://www.w3.org/2000/svg"><path fill="#ffffff" d="M809.393131 912.027152H147.877495c-54.746505 0-99.29697-44.550465-99.29697-99.29697V214.367677C48.580525 159.621172 93.132283 115.070707 147.877495 115.070707h664.561778c54.745212 0 99.29697 44.550465 99.296969 99.29697v97.277414c0 18.270384-14.796283 33.09899-33.098989 33.09899-18.304 0-33.09899-14.828606-33.09899-33.09899V214.367677c0-18.238061-14.828606-33.09899-33.09899-33.09899H147.877495c-18.238061 0-33.09899 14.860929-33.09899 33.09899v598.362505c0 18.271677 14.860929 33.09899 33.09899 33.09899h661.515636c18.271677 0 33.09899-14.827313 33.09899-33.09899v-102.341818c0-18.304 14.796283-33.09899 33.09899-33.09899 18.304 0 33.09899 14.79499 33.09899 33.09899v102.341818c0 54.746505-44.518141 99.29697-99.29697 99.29697zM634.233535 512.424081c0-17.896727 14.50796-32.404687 32.404687-32.404687 17.895434 0 32.403394 14.50796 32.403394 32.404687 0 17.895434-14.50796 32.403394-32.403394 32.403394-17.896727 0-32.404687-14.50796-32.404687-32.403394z m274.986667 130.210909h-330.989899c-36.508444 0-66.19798-29.689535-66.19798-66.19798v-132.395959c0-36.508444 29.689535-66.19798 66.19798-66.19798h330.989899c36.508444 0 66.19798 29.689535 66.19798 66.19798v132.395959c0 36.508444-29.689535 66.19798-66.19798 66.19798z m-330.989899-198.593939v132.395959h331.055838l-0.065939-132.395959h-330.989899z"  /></svg>