<?xml version="1.0" standalone="no"?><!DOCTYPE svg PUBLIC "-//W3C//DTD SVG 1.1//EN" "http://www.w3.org/Graphics/SVG/1.1/DTD/svg11.dtd"><svg t="1533198306695" class="icon" style="" viewBox="0 0 1024 1024" version="1.1" xmlns="http://www.w3.org/2000/svg" p-id="5268" xmlns:xlink="http://www.w3.org/1999/xlink" width="200" height="200"><defs><style type="text/css"></style></defs><path d="M648.8 675c-6.9 0-13.8-2.6-19.1-7.9L358.1 395.4c-10.5-10.5-10.5-27.6 0-38.2 10.5-10.5 27.6-10.5 38.2 0L668 628.9c10.5 10.5 10.5 27.6 0 38.2-5.3 5.2-12.2 7.9-19.2 7.9z" p-id="5269" fill="#707070"></path><path d="M377.2 675c-6.9 0-13.8-2.6-19.1-7.9-10.5-10.5-10.5-27.6 0-38.2l271.7-271.7c10.5-10.5 27.6-10.5 38.2 0 10.5 10.5 10.5 27.6 0 38.2L396.2 667c-5.2 5.3-12.1 8-19 8z" p-id="5270" fill="#707070"></path><path d="M511.3 858.7c-47 0-92.6-9.2-135.6-27.4-41.5-17.5-78.7-42.7-110.7-74.6s-57-69.2-74.6-110.7c-18.2-43-27.4-88.6-27.4-135.6s9.2-92.6 27.4-135.6c17.5-41.5 42.7-78.7 74.6-110.7 32-32 69.2-57.1 110.7-74.6 43-18.2 88.6-27.4 135.6-27.4s92.6 9.2 135.6 27.4c41.5 17.5 78.7 42.7 110.7 74.6 32 32 57.1 69.2 74.6 110.7 18.2 43 27.4 88.6 27.4 135.6 0 48.8-9.9 96.1-29.5 140.4-6 13.6-22 19.8-35.6 13.8-13.6-6-19.8-22-13.8-35.6 16.5-37.4 24.9-77.3 24.9-118.6 0-162.3-132-294.3-294.3-294.3S217 348.1 217 510.4s132 294.3 294.3 294.3c64 0 124.8-20.2 175.8-58.3 11.9-8.9 28.9-6.5 37.8 5.5 8.9 11.9 6.5 28.9-5.5 37.8-60.4 45.2-132.4 69-208.1 69z" p-id="5271" fill="#707070"></path></svg>